<svg data-name="Layer 1" xmlns="http://www.w3.org/2000/svg" width="1024" height="1024"><path d="M367.81 921.6C389 981.12 445.22 1024 512 1024s123-42.88 144.19-102.4zM138.51 819.17L760.16 197.5c-16.94-50.4-63-78-146.43-89 .13-2.06.62-4 .62-6.11a102.4 102.4 0 0 0-204.8 0c0 2.09.49 4 .61 6.11C301.92 122.76 256 164.63 256 248.68v58.51c0 243.19-133 351-204.8 409.59.8.8 0 102.39 0 102.39z"/><path d="M768.45 321.93l238-238L973.3 50.7 50.67 973.32l33.15 33.2 187.36-187.35h701.57s-.8-101.59 0-102.39c-70.29-57.36-198.93-162.25-204.3-394.85z"/></svg>