<?xml version="1.0" encoding="utf-8"?>
<!-- Generator: Adobe Illustrator 19.2.1, SVG Export Plug-In . SVG Version: 6.00 Build 0)  -->
<svg version="1.1" id="UPDATED_SQUARE_compound" xmlns="http://www.w3.org/2000/svg" xmlns:xlink="http://www.w3.org/1999/xlink"
	 x="0px" y="0px" viewBox="0 0 40 40" style="enable-background:new 0 0 40 40;" xml:space="preserve">
<style type="text/css">
	.st0{fill-rule:evenodd;clip-rule:evenodd;}
</style>
<g>
	<path d="M25,17.5c0-1.3-0.5-2.5-1.4-3.4c0.5-0.7,1.2-1.1,2.1-1.1c1.4,0,2.5,1.1,2.5,2.5S27.1,18,25.7,18c-0.3,0-0.5-0.1-0.7-0.1
		C25,17.8,25,17.6,25,17.5z M20,21c1.9,0,3.5-1.6,3.5-3.5S21.9,14,20,14s-3.5,1.6-3.5,3.5S18.1,21,20,21z M20,23.1
		c-4.3,0-6,0.9-6,3.4c0,0.9,0,3.4,0,3.4h12c0,0,0-0.8,0-3.4S24.3,23.1,20,23.1z M15.5,19.6c-0.4,0-0.7,0-1.2,0
		c-3.1,0-4.3,0.6-4.3,2.5c0,0.6,0,3,0,3h2.7c0.7-2.3,2.7-3,4.7-3.2C16.6,21.2,15.9,20.5,15.5,19.6z M14.3,18c0.3,0,0.5-0.1,0.7-0.1
		c0-0.1,0-0.3,0-0.4c0-1.3,0.5-2.5,1.4-3.4c-0.5-0.7-1.2-1.1-2.1-1.1c-1.4,0-2.5,1.1-2.5,2.5S12.9,18,14.3,18z M25.7,19.5
		c-0.4,0-0.8,0-1.2,0c-0.4,0.9-1.1,1.7-1.9,2.2c2,0.2,4.1,1,4.7,3.2H30c0,0,0-1.5,0-3C30,20.1,28.8,19.5,25.7,19.5z"/>
</g>
</svg>
