<svg id="UPDATED_SQUARE_compound" xmlns="http://www.w3.org/2000/svg" viewBox="0 0 40 40"><style>.st0{fill-rule:evenodd;clip-rule:evenodd}</style><path d="M25 17.5c0-1.3-.5-2.5-1.4-3.4.5-.7 1.2-1.1 2.1-1.1 1.4 0 2.5 1.1 2.5 2.5S27.1 18 25.7 18c-.3 0-.5-.1-.7-.1v-.4zM20 21c1.9 0 3.5-1.6 3.5-3.5S21.9 14 20 14s-3.5 1.6-3.5 3.5S18.1 21 20 21zm0 2.1c-4.3 0-6 .9-6 3.4v3.4h12v-3.4c0-2.6-1.7-3.4-6-3.4zm-4.5-3.5h-1.2c-3.1 0-4.3.6-4.3 2.5v3h2.7c.7-2.3 2.7-3 4.7-3.2-.8-.7-1.5-1.4-1.9-2.3zM14.3 18c.3 0 .5-.1.7-.1v-.4c0-1.3.5-2.5 1.4-3.4-.5-.7-1.2-1.1-2.1-1.1-1.4 0-2.5 1.1-2.5 2.5s1.1 2.5 2.5 2.5zm11.4 1.5h-1.2c-.4.9-1.1 1.7-1.9 2.2 2 .2 4.1 1 4.7 3.2H30v-3c0-1.8-1.2-2.4-4.3-2.4z"/></svg>