<?xml version="1.0" encoding="utf-8"?>
<!-- Generator: Adobe Illustrator 19.2.1, SVG Export Plug-In . SVG Version: 6.00 Build 0)  -->
<svg version="1.1" id="UPDATED_SQUARE_compound" xmlns="http://www.w3.org/2000/svg" xmlns:xlink="http://www.w3.org/1999/xlink"
	 x="0px" y="0px" viewBox="0 0 40 40" style="enable-background:new 0 0 40 40;" xml:space="preserve">
<style type="text/css">
	.st0{fill-rule:evenodd;clip-rule:evenodd;}
</style>
<path d="M10,24h9v6h-7h-2v-2V24z M30,16v2v4h-9v-6h-2v6h-9v-4v-2h2h1.6c-0.3-0.6-0.6-1.3-0.6-2c0-2.2,1.8-4,4-4c1.2,0,2.3,0.5,3,1.4
	c0.7-0.8,1.8-1.4,3-1.4c2.2,0,4,1.8,4,4c0,0.7-0.2,1.4-0.6,2H28H30z M19,14c0-1.1-0.9-2-2-2c-1.1,0-2,0.9-2,2c0,1.1,0.9,2,2,2
	C18.1,16,19,15.1,19,14z M25,14c0-1.1-0.9-2-2-2c-1.1,0-2,0.9-2,2c0,1.1,0.9,2,2,2C24.1,16,25,15.1,25,14z M21,30h7h2v-2v-4h-9V30z"
	/>
</svg>
