<svg xmlns="http://www.w3.org/2000/svg" width="1024" height="1024" viewBox="0 0 1024 1024"><g fill-rule="evenodd" clip-rule="evenodd"><path d="M224 584v184h256V584zM544 768h256V584H544zM736 336h-64.3c4.1-4.3 7.9-8.9 11.4-13.9 13.5-19.5 20.9-42.8 20.9-65.8 0-15-3.1-29.8-9.3-43.8-5.6-12.7-13.4-24.3-23.2-34.4-21.1-21.7-49.7-34.1-78.6-34.1-28.6 0-56 10.5-77.1 29.6-1.3 1.2-2.6 2.4-3.8 3.6-1.2-1.2-2.5-2.4-3.8-3.6-21.2-19.1-48.5-29.6-77.1-29.6-28.8 0-57.4 12.4-78.6 34.1-9.8 10.1-17.6 21.6-23.2 34.4-6.2 14.1-9.3 28.8-9.3 43.8 0 23 7.4 46.3 20.9 65.8 3.4 5 7.3 9.6 11.4 13.9H224v184h256V344h64v176h256V336h-64zm-256-32h-61.3c-20.9-5.4-34.7-27.7-34.7-47.7 0-25 22.6-48.3 47.1-48.3 26.3 0 48.9 20.3 48.9 44.1V304zm125.3 0H544v-51.9c0-23.9 22.6-44.1 48.9-44.1 24.5 0 47.1 23.3 47.1 48.3 0 20-13.8 42.3-34.7 47.7z"/></g></svg>
