<?xml version="1.0" encoding="utf-8"?>
<!-- Generator: Adobe Illustrator 19.2.1, SVG Export Plug-In . SVG Version: 6.00 Build 0)  -->
<svg version="1.1" id="UPDATED_SQUARE_compound" xmlns="http://www.w3.org/2000/svg" xmlns:xlink="http://www.w3.org/1999/xlink"
	 x="0px" y="0px" viewBox="0 0 40 40" style="enable-background:new 0 0 40 40;" xml:space="preserve">
<style type="text/css">
	.st0{fill-rule:evenodd;clip-rule:evenodd;}
</style>
<path id="link_3_" d="M16.5,24.9l-1.4-1.4l8.5-8.5l1.4,1.4L16.5,24.9z M21.4,22.8l-4.9,4.9l-4.2-4.2l4.9-4.9l-1.4-1.4l-4.9,4.9l0,0
	l-1.4,1.4l5.7,5.7l0,0l1.4,1.4l0,0l0,0l1.4-1.4l0,0l4.9-4.9L21.4,22.8z M30.6,16.5L30.6,16.5l-1.4-1.4l-5.7-5.7l-1.4,1.4l0,0
	l-4.9,4.9l1.4,1.4l4.9-4.9l4.2,4.2l-4.9,4.9l1.4,1.4l4.9-4.9l0,0L30.6,16.5z"/>
</svg>
