<?xml version="1.0" encoding="utf-8"?>
<!-- Generator: Adobe Illustrator 19.2.1, SVG Export Plug-In . SVG Version: 6.00 Build 0)  -->
<svg version="1.1" id="UPDATED_SQUARE_compound" xmlns="http://www.w3.org/2000/svg" xmlns:xlink="http://www.w3.org/1999/xlink"
	 x="0px" y="0px" viewBox="0 0 40 40" style="enable-background:new 0 0 40 40;" xml:space="preserve">
<style type="text/css">
	.st0{fill-rule:evenodd;clip-rule:evenodd;}
</style>
<path id="More" class="st0" d="M15,20c0,1.1-0.9,2-2,2s-2-0.9-2-2s0.9-2,2-2S15,18.9,15,20z M20,18c-1.1,0-2,0.9-2,2s0.9,2,2,2
	s2-0.9,2-2S21.1,18,20,18z M27,18c-1.1,0-2,0.9-2,2s0.9,2,2,2s2-0.9,2-2S28.1,18,27,18z"/>
</svg>
