<?xml version="1.0" encoding="utf-8"?>
<!-- Generator: Adobe Illustrator 19.2.1, SVG Export Plug-In . SVG Version: 6.00 Build 0)  -->
<svg version="1.1" id="UPDATED_SQUARE_compound" xmlns="http://www.w3.org/2000/svg" xmlns:xlink="http://www.w3.org/1999/xlink"
	 x="0px" y="0px" viewBox="0 0 40 40" style="enable-background:new 0 0 40 40;" xml:space="preserve">
<style type="text/css">
	.st0{fill-rule:evenodd;clip-rule:evenodd;}
</style>
<path d="M17.2,28h5.6c-0.4,1.2-1.5,2-2.8,2S17.6,29.2,17.2,28z M29,24c-1.4-1.1-4-3.2-4-8v-1.1c0-1.6-0.9-2.5-3-2.7c0,0,0-0.1,0-0.1
	c0-1.1-0.9-2-2-2s-2,0.9-2,2c0,0,0,0.1,0,0.1c-2.1,0.3-3,1.1-3,2.7V16c0,4.8-2.6,6.9-4,8c0,0,0,2,0,2h9h9C29,26,29,24,29,24z"/>
</svg>
