<svg xmlns="http://www.w3.org/2000/svg" width="1024" height="1024" viewBox="0 0 1024 1024"><path d="M512.2 769.9c33.8 0 62.5-21.7 73-51.9h-146c10.5 30.2 39.2 51.9 73 51.9zM680.3 522.7c-19.9-46.7-30.6-96.2-30.6-147.9 0-32.6-9.4-58.8-29.1-77.9-17.4-16.9-40.9-27.9-69.9-33 .8-3.1 1.2-6.4 1.2-9.8 0-22.1-17.9-40-40-40s-40 17.9-40 40c0 3.4.4 6.7 1.2 9.9-28.8 5.1-52 16.1-69.3 32.9-19.9 19.1-29.3 45.4-29.3 77.9 0 51.7-10.7 101.1-30.6 147.9-19.9 46.5-49.1 85.1-88 116.9 0 10.3 3.8 19.3 11.7 26.8 7.8 7.5 17 11.6 27.7 11.6H729c10.7 0 19.9-4.1 27.7-11.6 7.8-7.5 11.7-16.5 11.7-26.8-39-31.8-68.2-70.4-88.1-116.9z"/></svg>