<svg xmlns="http://www.w3.org/2000/svg" width="1024" height="1024" viewBox="0 0 1024 1024"><path d="M703 507c0-1.4 0-2.9-.1-4.3l83-22.3-23.3-87.4-82.9 22.2c-9.4-17.3-21.5-33-35.6-46.6l42.8-74.2-78.4-45.3L566 323c-17.4-5.2-35.9-8-55-8h-3.6l-22-82-87.4 23.4 21.8 81.5c-17.7 9.5-33.7 21.8-47.5 36.2L299.5 332l-45.3 78.4 72.7 42c-5.1 17.3-7.9 35.6-7.9 54.6 0 1.6 0 3.2.1 4.8L238 533.6l23.4 87.4 81.1-21.7c9.7 17.7 22.1 33.6 36.6 47.4l-42.1 73 78.4 45.5 42.3-73c16.9 4 34.8 7.2 53.3 7.2 1.9 0 3.7-.2 5.6-.2v-.1l22 82 87.4-23.4-22.1-82.5c17.3-9.6 32.9-21.7 46.4-36l74.2 42.8 45.3-78.4-74.4-42.9c4.9-17.1 7.6-35.1 7.6-53.7zm-368.2-76.3zm30.2-48.4c-.2.2-.4.4-.6.7.2-.3.4-.5.6-.7zm-3.5 4.2c-.2.2-.4.5-.6.7.2-.2.4-.4.6-.7zm-3.6 4.7c-.1.1-.1.2-.2.2l.2-.2zm-6.7 9.4c-.1.1-.1.2-.2.3.1-.2.1-.3.2-.3zm-3 4.6c-.1.2-.2.4-.3.5.1-.2.2-.4.3-.5zm-3 5c0 .1-.1.1-.1.2 0-.1 0-.2.1-.2zm-8 15.2s0 .1-.1.1c0 0 0-.1.1-.1zm-17.8 93.4c0-.5-.1-.9-.1-1.4 0 .5 0 1 .1 1.4zm6.5 39.4c-.1-.4-.2-.9-.4-1.3.2.4.3.9.4 1.3zm-1.4-5.3c-.1-.5-.2-.9-.3-1.4.1.5.2 1 .3 1.4zm-1.3-5.6c-.1-.3-.1-.7-.2-1 .1.3.2.7.2 1zm-2.1-11.8c-.1-.5-.1-.9-.2-1.4.1.5.1 1 .2 1.4zm-.7-5.3c-.1-.6-.1-1.2-.2-1.7.1.5.1 1.1.2 1.7zm-.6-5.5c-.1-.6-.1-1.2-.2-1.8.1.6.2 1.2.2 1.8zm17.6 64.3c.1.1.1.3.2.4-.1-.1-.2-.2-.2-.4zm-10.3-26.5c.1.3.2.6.3.8-.1-.3-.2-.5-.3-.8zm3.8 11.2c.1.1.1.3.2.4-.1-.1-.1-.3-.2-.4zm1.9 5c.1.3.2.6.4.9-.1-.3-.2-.6-.4-.9zm2.2 5c.1.3.3.6.4.9-.2-.3-.3-.6-.4-.9zm300.8-222.6l-.2-.2.2.2zm-4.2-3.5c-.2-.1-.3-.2-.5-.4.2.2.4.3.5.4zM627 354c-.1 0-.1-.1-.2-.1.1 0 .2.1.2.1zm-14-9.7c-.1-.1-.2-.1-.3-.2.1.1.2.2.3.2zm-25.3-13.4zm20.4 10.5l-.1-.1s.1 0 .1.1zm-118.2-25.2h-.2.2zm-64.5 18.9c-.3.2-.6.3-.9.5.3-.2.6-.4.9-.5zm58.9-18.2c-.2 0-.3 0-.5.1.2-.1.3-.1.5-.1zm-5.8.9h-.2.2zm-16.7 3.6c-.2.1-.4.1-.6.2.2-.1.4-.2.6-.2zm-5.3 1.4l-.9.3c.4-.1.7-.2.9-.3zm-5.3 1.7c-.2.1-.5.1-.7.2.2 0 .4-.1.7-.2zm-15.9 6c-.3.1-.6.3-.9.4.2-.1.5-.2.9-.4zm-4.9 2.2c-.4.2-.8.4-1.1.5.3-.1.7-.3 1.1-.5zm-47.3 317.5l.5.5c-.1-.2-.3-.4-.5-.5zm4.2 3.6c.2.1.3.3.5.4-.2-.1-.3-.2-.5-.4zm13.6 10.5c.2.1.3.2.5.4-.1-.1-.3-.3-.5-.4zm4.5 3.1c.2.1.4.3.7.4-.2-.1-.4-.3-.7-.4zm5 3.2c.1 0 .2.1.2.1s-.1-.1-.2-.1zm41.3 19.1c.3.1.5.2.8.3-.3-.2-.5-.3-.8-.3zm-31.3-13.4c.1.1.3.1.4.2-.2-.1-.3-.1-.4-.2zm4.8 2.5c.3.1.5.3.8.4-.3-.2-.6-.3-.8-.4zm5.1 2.5l.6.3-.6-.3zm11 4.6zm5.1 1.9c.3.1.5.2.8.3-.3-.1-.6-.2-.8-.3zm75.7 10.9c.3 0 .7 0 1-.1-.3 0-.6.1-1 .1zm5.7-.4c.4 0 .7-.1 1.1-.1-.4 0-.8 0-1.1.1zm5.8-.6c.3 0 .5-.1.8-.1-.3 0-.5 0-.8.1zm49.9-12.9c.1 0 .2-.1.3-.1 0 0-.2.1-.3.1zm-32.5 10c.2 0 .4-.1.7-.1-.3 0-.5.1-.7.1zm5.4-1.2c.3-.1.5-.1.8-.2-.3.1-.5.1-.8.2zm5.7-1.5c.1 0 .2-.1.3-.1-.1.1-.2.1-.3.1zm16.3-5.3c.1 0 .2-.1.2-.1 0 .1-.1.1-.2.1zm11.8-100.6C569 607.3 540.9 619 511 619s-58-11.7-79.2-32.8S399 536.9 399 507s11.7-58 32.8-79.2C453 406.6 481.1 395 511 395s58 11.6 79.2 32.8C611.3 449 623 477.1 623 507c0 29.9-11.7 58-32.8 79.2zm112.1-95.8c0 .3 0 .5.1.8-.1-.3-.1-.6-.1-.8zm-6.1-34.2l.3 1.2-.3-1.2zm1.4 5.6c.1.3.2.6.2.9 0-.3-.1-.6-.2-.9zm2.5 11.8v0zm.9 5.4c0 .3.1.6.1 1 0-.4-.1-.7-.1-1zm.7 5.5c0 .4.1.7.1 1.1 0-.3-.1-.7-.1-1.1zm-19.2-63.9c-.1-.2-.2-.4-.3-.5.1.1.2.3.3.5zm12.5 31.5c-.1-.4-.2-.7-.3-1.1.1.4.2.8.3 1.1zm-1.8-5.7c0-.1-.1-.3-.1-.4 0 .1.1.2.1.4zm-3.9-10.6c-.1-.4-.3-.7-.4-1 .2.3.3.6.4 1zm-2-4.9c-.2-.4-.4-.9-.6-1.3.2.4.4.8.6 1.3zm-2.2-5c-.2-.4-.4-.8-.5-1.2.1.4.3.8.5 1.2zm-30.5 208.6c-.2.2-.4.5-.6.7.1-.2.3-.5.6-.7zm20-27c-.1.2-.2.4-.4.6.2-.2.3-.4.4-.6zm-2.9 4.6c-.2.3-.4.5-.5.8.1-.3.3-.5.5-.8zm-3.2 4.7c-.1.2-.3.4-.4.5.1-.1.3-.3.4-.5zm-7 9.4c-.1.2-.2.3-.4.5.2-.2.3-.4.4-.5zm-3.3 4.1c-.2.3-.5.6-.7.8.2-.3.4-.5.7-.8zm35.4-63.9c0-.1.1-.3.1-.4 0 .1 0 .3-.1.4zM682.7 593l.3-.6-.3.6zm2.4-5.1c.1-.2.2-.3.2-.5 0 .2-.1.4-.2.5zm6.7-16.2c0-.1.1-.1.1-.2 0 .1-.1.2-.1.2z"/></svg>
