<?xml version="1.0" encoding="utf-8"?>
<!-- Generator: Adobe Illustrator 19.2.1, SVG Export Plug-In . SVG Version: 6.00 Build 0)  -->
<svg version="1.1" id="UPDATED_SQUARE_compound" xmlns="http://www.w3.org/2000/svg" xmlns:xlink="http://www.w3.org/1999/xlink"
	 x="0px" y="0px" viewBox="0 0 40 40" style="enable-background:new 0 0 40 40;" xml:space="preserve">
<style type="text/css">
	.st0{fill-rule:evenodd;clip-rule:evenodd;}
</style>
<path d="M27.3,22C27.3,22,27.3,22,27.3,22l2.7,0l0-4l-2.7,0c0,0-0.3,0-0.3,0c-0.6,0-0.7-0.5-0.7-1c0-0.3,0.1-0.5,0.3-0.7
	c0,0,0,0,0,0l1.9-1.9l-2.8-2.8l-1.9,1.9c-0.2,0.2-0.4,0.3-0.7,0.3c-0.6,0-1-0.5-1-1l0,0V10h-4v2.7c0,0,0,0,0,0c0,0.6-0.5,1-1,1
	c-0.3,0-0.5-0.1-0.7-0.3l-1.9-1.9l-2.8,2.8l1.9,1.9c0,0,0,0,0,0c0.2,0.2,0.3,0.4,0.3,0.7c0,0.6-0.2,1-0.7,1h-3v4l2.7,0c0,0,0,0,0,0
	c0.6,0,1,0.5,1,1c0,0.3-0.1,0.5-0.3,0.7l-1.9,1.9l2.8,2.8l1.9-1.9c0,0,0,0,0,0c0.2-0.2,0.4-0.3,0.7-0.3c0.6,0,1,0.2,1,0.7
	c0,0,0,0.3,0,0.3l0,2.7l4,0v-2.7c0,0,0,0,0,0c0-0.6,0.5-1,1-1c0.3,0,0.5,0.1,0.7,0.3c0,0,0,0,0,0l1.9,1.9l2.8-2.8l-1.9-1.9l0,0
	c-0.2-0.2-0.3-0.4-0.3-0.7C26.3,22.5,26.7,22,27.3,22z M20,24c-2.2,0-4-1.8-4-4c0-2.2,1.8-4,4-4c2.2,0,4,1.8,4,4
	C24,22.2,22.2,24,20,24z"/>
</svg>
