<svg id="UPDATED_SQUARE_compound" xmlns="http://www.w3.org/2000/svg" viewBox="0 0 40 40"><style>.st0{fill-rule:evenodd;clip-rule:evenodd}</style><path d="M27.3 22H30v-4h-2.7-.3c-.6 0-.7-.5-.7-1 0-.3.1-.5.3-.7l1.9-1.9-2.8-2.8-1.9 1.9c-.2.2-.4.3-.7.3-.6 0-1-.5-1-1V10h-4v2.7c0 .6-.5 1-1 1-.3 0-.5-.1-.7-.3l-1.9-1.9-2.8 2.8 1.9 1.9c.2.2.3.4.3.7 0 .6-.2 1-.7 1h-3v4h2.7c.6 0 1 .5 1 1 0 .3-.1.5-.3.7l-1.9 1.9 2.8 2.8 1.9-1.9c.2-.2.4-.3.7-.3.6 0 1 .2 1 .7v3h4v-2.7c0-.6.5-1 1-1 .3 0 .5.1.7.3l1.9 1.9 2.8-2.8-1.9-1.9c-.2-.2-.3-.4-.3-.7 0-.4.4-.9 1-.9zM20 24c-2.2 0-4-1.8-4-4s1.8-4 4-4 4 1.8 4 4-1.8 4-4 4z"/></svg>