<svg xmlns="http://www.w3.org/2000/svg" viewBox="0 0 1024 1024"><path d="M742.4 691.2c0 42.4-34.4 76.8-76.8 76.8s-76.8-34.4-76.8-76.8c0-4.9.6-9.7 1.4-14.3L407.7 570.4c-13.4 11.3-30.4 18.4-49.3 18.4-42.4 0-76.8-34.4-76.8-76.8s34.4-76.8 76.8-76.8c18.9 0 36 7.1 49.3 18.4l182.5-106.5c-.9-4.6-1.4-9.4-1.4-14.3 0-42.4 34.4-76.8 76.8-76.8s76.8 34.4 76.8 76.8-34.4 76.8-76.8 76.8c-18.9 0-36-7.1-49.3-18.4L433.8 497.7c.9 4.6 1.4 9.4 1.4 14.3s-.6 9.7-1.4 14.3l182.5 106.5c13.4-11.3 30.4-18.4 49.3-18.4 42.4 0 76.8 34.4 76.8 76.8z"/></svg>