<?xml version="1.0" encoding="utf-8"?>
<!-- Generator: Adobe Illustrator 19.2.1, SVG Export Plug-In . SVG Version: 6.00 Build 0)  -->
<svg version="1.1" id="UPDATED_SQUARE_compound" xmlns="http://www.w3.org/2000/svg" xmlns:xlink="http://www.w3.org/1999/xlink"
	 x="0px" y="0px" viewBox="0 0 40 40" style="enable-background:new 0 0 40 40;" xml:space="preserve">
<style type="text/css">
	.st0{fill-rule:evenodd;clip-rule:evenodd;}
</style>
<path d="M29,27c0,1.7-1.3,3-3,3s-3-1.3-3-3c0-0.2,0-0.4,0.1-0.6l-7.1-4.2C15.4,22.7,14.7,23,14,23c-1.7,0-3-1.3-3-3s1.3-3,3-3
	c0.7,0,1.4,0.3,1.9,0.7l7.1-4.2c0-0.2-0.1-0.4-0.1-0.6c0-1.7,1.3-3,3-3s3,1.3,3,3s-1.3,3-3,3c-0.7,0-1.4-0.3-1.9-0.7l-7.1,4.2
	c0,0.2,0.1,0.4,0.1,0.6s0,0.4-0.1,0.6l7.1,4.2c0.5-0.4,1.2-0.7,1.9-0.7C27.7,24,29,25.3,29,27z"/>
</svg>
