<svg xmlns="http://www.w3.org/2000/svg" width="1024" height="1024" viewBox="0 0 1024 1024"><path fill="none" d="M796.9 582.3c-2.9-83.4-97.9-150.8-216-153.7-5.4 7.8-11.6 15.1-18.4 21.9 6.8-6.8 12.9-14.1 18.4-21.9 118.1 2.9 213.1 70.2 216 153.7zM626.4 496.9c25.2 17.7 45.1 38.8 59.3 62.3 15.5 25.8 23.3 53.3 23.3 82 0-28.7-7.8-56.3-23.3-82.1-14.2-23.5-34.1-44.5-59.3-62.2z"/><path d="M562.5 219.1c15 15 26.8 32.6 35 52 8.6 20.2 12.9 41.7 12.9 63.7s-4.3 43.5-12.9 63.7c-.5 1.1-1 2.3-1.5 3.4 58-10.1 102.4-61.1 102.4-122.1 0-68.2-55.5-123.9-123.4-123.9-27.4 0-52.9 9.1-73.4 24.5 3 1.1 6 2.3 9 3.5 19.5 8.3 36.9 20.1 51.9 35.2zM580.9 428.6c-5.4 7.8-11.6 15-18.4 21.9-3.4 3.4-6.8 6.5-10.4 9.5 27.2 9 52.3 21.4 74.3 36.9 25.2 17.7 45.1 38.7 59.3 62.3 15.5 25.8 23.3 53.4 23.3 82.1V745h73l15-16V586.2c0-1.3 0-2.7-.1-4-2.9-83.4-97.9-150.7-216-153.6z"/><path fill="#FFF" d="M813.7 504.2c-14.2-23.6-34.1-44.6-59.3-62.3-22-15.5-47.1-27.9-74.3-36.9 3.6-3 7.1-6.1 10.4-9.5 15-15 26.8-32.5 35-52 8.6-20.2 12.9-41.6 12.9-63.7s-4.3-43.5-12.9-63.7c-8.2-19.5-20-37-35-52-15-15.1-32.5-26.9-51.9-35.2-20.2-8.6-41.6-13-63.6-13s-43.4 4.4-63.6 13c-19.4 8.3-36.9 20.1-51.9 35.2-2.3 2.3-4.4 4.6-6.5 7-2-.1-4-.1-6-.1-22 0-43.4 4.4-63.6 13-19.4 8.3-36.9 20.1-51.9 35.2-15 15-26.8 32.6-35 52-8.6 20.2-12.9 41.7-12.9 63.7s4.3 43.5 12.9 63.7c8.2 19.5 20 36.9 35 51.9 3 3 6.1 6.5 9.3 8.5-28.3 9-54.4 21.8-77.2 37.9-25.2 17.7-45.1 38.7-59.3 62.3-15.5 25.8-23.3 53.4-23.3 82.1V799.7l11.9 11.7 17.2 17 11.7 11.6h449.5l11.9-12.6 15-16 10.8-11.5V785h90.3l11.9-12.6 15-16 10.8-11.5V586.2c0-28.6-7.8-56.2-23.3-82zM575 155.9c67.9 0 123.4 55.7 123.4 123.9 0 61-44.4 112-102.4 122.1.5-1.1 1-2.3 1.5-3.4 8.6-20.2 12.9-41.7 12.9-63.7s-4.3-43.5-12.9-63.7c-8.2-19.5-20-37-35-52-15-15.1-32.5-26.9-51.9-35.2-3-1.3-6-2.4-9-3.5 20.5-15.4 46-24.5 73.4-24.5zM323.6 334.8c0-68.2 55.5-123.9 123.4-123.9s123.4 55.7 123.4 123.9S514.9 458.7 447 458.7c-67.9.1-123.4-55.7-123.4-123.9zM669 784l-15 16H238.2L221 783V641.2c0-87.1 100.3-157.8 224-157.8S669 554 669 641.2V784zm128-55l-15 16h-73V641.2c0-28.7-7.8-56.2-23.3-82-14.2-23.6-34.1-44.6-59.3-62.3-22-15.5-47.1-27.9-74.3-36.9 3.6-3 7.1-6.1 10.4-9.5 6.8-6.8 12.9-14.1 18.4-21.9 118.1 2.9 213.1 70.3 216 153.7 0 1.3.1 2.7.1 4V729z"/><path d="M447 458.8c67.9 0 123.4-55.7 123.4-123.9S514.9 211 447 211s-123.4 55.7-123.4 123.9c0 68.1 55.5 123.9 123.4 123.9zM445 483.5c-123.7 0-224 70.6-224 157.8V783l17.2 17H654l15-16V641.2c0-87.1-100.3-157.7-224-157.7z"/></svg>
