<?xml version="1.0" encoding="utf-8"?>
<!-- Generator: Adobe Illustrator 19.2.1, SVG Export Plug-In . SVG Version: 6.00 Build 0)  -->
<svg version="1.1" id="UPDATED_SQUARE_compound" xmlns="http://www.w3.org/2000/svg" xmlns:xlink="http://www.w3.org/1999/xlink"
	 x="0px" y="0px" viewBox="0 0 40 40" style="enable-background:new 0 0 40 40;" xml:space="preserve">
<style type="text/css">
	.st0{fill-rule:evenodd;clip-rule:evenodd;}
</style>
<g>
	<g>
		<circle cx="17" cy="16" r="4"/>
	</g>
	<g>
		<path d="M23,16c0,0.7-0.1,1.3-0.3,2c0.1,0,0.2,0,0.3,0c2.2,0,4-1.8,4-4c0-2.2-1.8-4-4-4c-1,0-1.9,0.4-2.7,1
			C21.9,12.1,23,13.9,23,16z"/>
	</g>
	<g>
		<path d="M17,22c-5,0-7,1-7,4c0,1.1,0,4,0,4h14c0,0,0-1,0-4C24,23,22,22,17,22z"/>
	</g>
	<g>
		<path d="M23,20c-0.6,0-1.1,0-1.6,0c-0.1,0.1-0.2,0.2-0.3,0.3c2.5,0.5,4.9,1.9,4.9,5.7v2h4c0,0,0-1,0-4C30,21,28,20,23,20z"/>
	</g>
</g>
</svg>
