<svg id="Layer_1" data-name="Layer 1" xmlns="http://www.w3.org/2000/svg" width="1024" height="1024"><defs><style>.cls-1{fill:none}</style></defs><path id="bounding_box" data-name="bounding box" class="cls-1" d="M0 0h1024v1024H0z"/><path id="bounding_box-2" data-name="bounding box" class="cls-1" d="M0 0h1024v1024H0z"/><path d="M545.86 309.4L365.3 445a10.72 10.72 0 0 0-2.71 3.25H258.53v153.2h104.06a10.58 10.58 0 0 0 2.71 3.25l180.56 135.52a10.83 10.83 0 0 0 17.34-8.66v-413.5a10.83 10.83 0 0 0-17.34-8.66z" fill="#1d1d1b"/><path d="M745.6 614.41l22.4-22.4-67.2-67.2 67.2-67.2-22.4-22.4-67.2 67.2-67.2-67.2-22.4 22.4 67.2 67.2-67.2 67.2 22.4 22.4 67.2-67.2 67.2 67.2z"/></svg>