<svg xmlns="http://www.w3.org/2000/svg" viewBox="0 0 1024 1024"><path d="M408.4 757.93c13.61 35.69 49.73 61.4 92.63 61.4s79-25.71 92.63-61.4H408.4zm-147.3-61.42l399.35-372.78C649.57 293.51 620 277 566.39 270.37c.08-1.24.4-2.4.4-3.66 0-33.91-29.48-61.39-65.81-61.38s-65.74 27.49-65.75 61.38c0 1.25.31 2.4.39 3.66-69.53 8.55-99 33.66-99 84.06v35.08c0 145.83-85.44 210.47-131.57 245.6.51.48 0 61.4 0 61.4h56z"/><path d="M665.78 398.35l152.89-142.72-21.3-19.93-592.7 553.24L226 808.85l120.33-112.34H797s-.51-60.92 0-61.4c-45.16-34.4-127.8-97.29-131.24-236.77z"/></svg>