<svg xmlns="http://www.w3.org/2000/svg" viewBox="0 0 1024 1024"><path d="M424.44 714c11.19 29.35 40.9 50.5 76.19 50.5s65-21.15 76.19-50.5H424.44zm-121.15-50.52l328.45-306.6C622.8 332 598.47 318.45 554.38 313c.07-1 .33-2 .33-3 0-27.89-24.25-50.49-54.13-50.48s-54.07 22.59-54.07 50.48c0 1 .25 2 .32 3-57.19 7-81.42 27.68-81.42 69.14V411c0 119.94-70.27 173.11-108.21 202 .42.39 0 50.5 0 50.5h46.1z"/><path d="M641.06 413.32l125.75-117.38-17.52-16.39-487.48 455 17.54 16.38 99-92.4H749s-.42-50.1 0-50.5C711.84 579.76 643.88 528 641 413.31z"/></svg>
