<svg xmlns="http://www.w3.org/2000/svg" width="1024" height="1024" viewBox="0 0 1024 1024"><path d="M717.7 611.8c-27.8-16-56.6-30.3-85-45.2-9.3-4.9-17.1-2.8-23.9 5.3-9.1 10.8-19 20.9-27.7 31.9-10.5 13.3-21.8 14.6-36.9 7-48.4-24.3-88.3-57.9-118.3-103.2-21.9-33.1-22.2-32.9 2.9-63.8 3.6-4.3 8.2-8.6 9.7-13.7 2.5-8.7 5.9-19.1 3.3-27-9.6-28.8-21-57-32.7-85.1-2.1-5.1-7.6-11.2-12.5-12.2-22-4.5-43.7-5.6-61.2 13-27.9 29.6-40.7 64.2-35.6 104.9 5.4 42.8 28.3 77.6 51.2 112.6 55.4 84.7 130.2 143.9 227.4 173.8 14.4 4.4 29.4 6.7 44.2 9.9l.4-1.6c7.9-.8 15.8-1.1 23.6-2.3 46-7 76.2-38.9 79.3-85 .4-6.2-3.3-16.4-8.2-19.3"/></svg>
