<svg xmlns="http://www.w3.org/2000/svg" width="1024" height="1024" viewBox="0 0 1024 1024"><path fill-rule="evenodd" clip-rule="evenodd" d="M643.1 581.5c-27.3 0-51.8 11.8-68.8 30.6l-166.2-82.4c1-5.4 1.5-11 1.5-16.7l-.1-3.5 172-90.5c16.4 14.6 38 23.5 61.6 23.5 51.3 0 92.9-41.7 92.9-93.2s-41.6-93.2-92.9-93.2c-51.3 0-92.8 41.8-92.8 93.2 0 3.8.2 7.6.7 11.4l-167 88.1c-16.9-17.8-40.7-28.9-67.1-28.9-51.3 0-92.9 41.7-92.9 93.2s41.6 93.2 92.9 93.2c21.6 0 41.5-7.4 57.2-19.9l176.2 87.3v1c0 51.5 41.6 93.2 92.8 93.2 51.3 0 92.9-41.7 92.9-93.2 0-51.4-41.6-93.2-92.9-93.2z"/></svg>